<mxfile host="app.diagrams.net" modified="2023-10-06T14:11:13.090Z" agent="Mozilla/5.0 (Windows NT 10.0; Win64; x64) AppleWebKit/537.36 (KHTML, like Gecko) Chrome/117.0.0.0 Safari/537.36" version="22.0.3" etag="lGzpMFqEOvPf5lcVWgyI" type="github">
  <diagram name="PÃ¡gina-1" id="wbVa1MJJYLq1jMh69SG7">
    <mxGraphModel>
      <root>
        <mxCell id="0" />
        <mxCell id="1" parent="0" />
      </root>
    </mxGraphModel>
  </diagram>
</mxfile>
